<mxfile host="65bd71144e">
    <diagram id="lOiJOrDbd9FcAooba2KH" name="ページ1">
        <mxGraphModel dx="830" dy="771" grid="1" gridSize="10" guides="1" tooltips="1" connect="1" arrows="1" fold="1" page="1" pageScale="1" pageWidth="827" pageHeight="1169" background="#ffffff" math="0" shadow="0">
            <root>
                <mxCell id="0"/>
                <mxCell id="1" parent="0"/>
                <mxCell id="2" value="" style="shape=image;imageAspect=0;aspect=fixed;verticalLabelPosition=bottom;verticalAlign=top;image=data:image/png,iVBORw0KGgoAAAANSUhEUgAAAawAAADtCAYAAADju0HRAAAABHNCSVQICAgIfAhkiAAAABl0RVh0U29mdHdhcmUAZ25vbWUtc2NyZWVuc2hvdO8Dvz4AAAAzaVRYdENyZWF0aW9uIFRpbWUAAAAAADIwMjLlubQxMuaciDE55pelIDE25pmCNTPliIYyNuenkhMRDqQAACAASURBVHic7N13fFRV+vjxz7llanojlRKKlCAg0juoiIpdVMS2CmvBVferKLLqwmIXlRUQ1NV1VRR7BQQUVwREQUGK9C4lkJ7pc+/9/RHkpytCQiaZlPN+veaFTuae+0wyM8+cc557jrAsy0KSJEmS6jgl2gFIkiRJUmXIhCVJkiTVCzJhSZIkSfWC9uv/ycjI4MCBA9GKRZIkSZJIT09n//79v7tf/LroQgiBrMGQJEmSoumPcpEcEpQkSZLqBe3ED/ljlmVhmiaKEpm8Z5omQoijN0mqzwzDQFGU37yWf/nWKF/fklR11UpY27Zt45///Ccej6fab0DTNHG5XITDYfx+Py1atOCWW24hNTW1Wu1KUjSEQiFefvllNm7cyLhx40hPTwfgzTffpE2bNnTt2jXKEUq1zbIsysrKsCwLu92Ow+GIdkj1TrUSVkpKCrqu89JLL0UkmL/85S9s2rSJRYsW4Xa7KSgo4PHHH5d/WKne0TSNnJwcZs2axcGDB3nppZew2+0sW7YMTdNkwmqESktLueaaa/B6vVxzzTVcffXV0Q6p3qnWWF5CQgJDhgyJyPDGueeey5QpU5g1axYDBw7E4/Hw7LPPct9998lCkDrEOnIzf3X75T7p/xNCMGzYMGbOnMnnn3/OLbfcgmEYOByOiA2hS/VLMBhk3rx5LFq0iE2bNkU7nHqpWj0sgHPOOYdZs2Zxyy23EA6HT6oNRVHo168fmqaRm5vLa6+9xtixY/nggw94+umnadu2LWPGjKluqI3aL0nGsMCwTAzDxDBNTNMgbBiYloVhmliGiRUMIkJBRDCIGg4jQkEIBiEcwgoEEKZRcfP5EMEgCqACmq6jxsYiHE7Cmk5Yt2E4XZjuGNS4ODSnA5uioAONZQanW7duLF26lD59+nD99dcfndeSGp9ff7FXVTWKkdRf1U5YAKNHjyYUCvHAAw9QUFBQpWMTExO5++67ueeee47el5WVxbPPPovT6eSNN95g4cKFXHDBBTRp0iQS4dYrYcsiZBiEw2FCYYOwEcY0TMJGxX8bhoERCGIGA1iBAISCmIEAqmFAKIwIh7HCIcxAECMYwPD7CAf8GP4ARsCPGQwSDvohHMYMBrGCAUxPOarHg1JWhi0YwOb3Yg8G0ENB7OEQuhlGM00ULBBgIAgBIMAysRD4dRs+ZyyhpBTCaU3QsnPQUlJRE5JQEhKx4hIIxcWhJibicLuJcccQ43Zhb4Af5i1btmTevHlcffXVbNu2jcsvvzzaIUlRJotuTk5EEhbAmDFjiIuLY/ny5bz22muUlpYe9/F2u51rrrmG3r17c9lll/3u59nZ2Tz88MN06tSJ9957jz//+c8MHDiQK6644ugEdn1j/fpfyyLg91NeXk55eTme0lKChYVQWoLw+1HCYQgGsAJ+LP+Rf4N+CIUgFESEQlihIITDGEeS1f8mLBEOIwwDxTBQTRPVMtFNA4dpoloWilVxn4KFapmogLBAKApC1RBOF7jciIR0REzskVsMituN4nKD3QGKijiaYwSWYWB5PTgKDhN78CBW/gGszesx132HgYJfteG12fA73QRjYlESk7AlJlKamIKanIKRnEo4rQmO1FTi4+OJTUjA5XJVVI5Sf3tmXbp0Yfr06Tz44IMYhhHtcKQoM00zKsfWBiEEwWCQhx56iDZt2jBixAh0Xf/d1M7JjDRELGFpmsaoUaM477zzyM7OZtKkSfj9/j987J133sldd91FcnLyH7bZvHlz7rnnHoqLi3n00UdZuHAhW7duZeLEicc9ri6wAMM0Kz6cDIOA10tRQSEF+QcpPZiPregw+uF81ILDiLISRFkpoqwEfD5EKISwTBTzyM2yUI4kGRWrIsEAqgBFCBQBCAUUBVQNoemg6eB2gm5H6DaE3QZ2B8JmA7sNbHaEzY6wOxB2e8XNYUc4XSguF+j2isc7nAinE5yuip85HeBwoNid4LD/7puiBeDzYZSUYBYVYRUVYJUUY5UXYxw4iOvAAeIP7MPKPwAFBzEP7sawBEGh4ldUDN2GiIsjlJLKodR09qelE2qSAU3SiU1KJCk1jdiEBHSbDUVVUYRArSe9sgEDBtClS5c6/4Ej1byPP/6YQYMGMWjQoCod5/f7mTBhAgcPHqzVYcVfLs/45VKmEzEMgzfeeIPs7Gzmz5+PpmlHE1YgEKBPnz7cdNNN6LpepTgilrB+kZCQwB133EFJSQmPPfbYMR9z8803M2HCBGJiYirV5p/+9CdWrFjB4sWLj1YkTpkyBbvdHrG4IyFsGBihEFYoRNDnY8/u3RzYvg1z7x4ch/IrElRhPrElRWh+H/ZgCLtlYgd0VaDoNoTTDXHxCIcTHBUJA5cT4YoBpxPhch1JIi6E24XiciOczopEpKgVCURVQVEr/lU1hKqCplXcVA00FaFpCFU7er/QdISmga5TndEKAeB0ojmd8D89YdPjwSwrxSwthbJS8PswPOUY+37G2LeP2H17sXZvxzq8H+PAXgII/IqCz2bHiksg2CSLHekZ+DKyCCenEpuaSnKTJqRlZOBwu1EUBVVRUFW1zvbEZAGRBLBp0yZ27NhR5YQVDodZtGgRW7ZsqfKH/cmyLAuv14thGGiahtPprNSQZlJSEuXl5Xz88ce/ud/r9aLrOqNHj45+wgJwOp3069ePJ5544nfZeNiwYUyZMqVKgbZu3ZoXX3yRMWPG8PnnnzN9+nQ0TeOpp56K6gS2YVmEvF6sQICwz8uuzZs5sPI72L4V96GDxBblk1NeMcSnIbCpKja7juZwoCSnQNOWKC1bozZrjpqdg5qSWpE01CPJRlGODLkpR5KNWpF8jtyPqtTZD+ZjUdxuFLcb0jN+c79lmBDwY/r9Ff+WlRLevg3nurUYm36CPduxig4SOrgX/6owQcCwOwgnp1OYmcO29Ex8aU2Iz8wkKTOLtGbNiE1MQlcVbJqGJucLpDrmhhtuOOZUyIm4XC4+/PBDgsFgrcyDKYqC1+tl9OjRrFixgsGDB/P0009jt9tPeqTAsixiY2NPqsNRIwkLKsrUn3/+eW699VYCgQAAuq4zcODAk/pmkJubyyuvvMIdd9zBO++8w9SpU2nVqhVjx46NdOh/zLLwHzxAaP9+FG85Jdu2sn/FckKbNhBXeIjEoI8U0wC7AyUmDi0xETUnGyUuCTJzEM1borVqg61Na5S4OOrvjExkCVUBlwvV5QJAzchEb9MWzj4XACscJrx7N8E1P+Dc8CPs241RVIBRWEja6mUYnjIsoRBISKEwNYO1TTIoS21CQvNcEnJbEd+sGc7YGFx2O/FuN7qs0JKiLDU1ldjY2CofpygKzZs3j3xAx+Hz+XAdeW/GxMTQqlUrbDZbrcbwixpLWFDxLSIYDHL//fdjmibjxo1j3LhxJ91eVlYWzzzzDDabjdmzZ9fKGK5lGAS2biGwYR3iwD7KV32Ld90aHOUl6Fg0dboQKU1QOp2Gmp6BkpCISExBZGSjNm+O3rw5SmwcINPTyRKahp6bi56bi3XRJRA2MA7lE9q+HXP7FswDezELDmP/eQ8xe3eTs209lqrhSU6jICGFHbHxKE0ysLVoibN1G/S0NOJiY0lJSiLuyFBibZHlzBJQrwpvLMs6OpRtmmZUh7VrNGEB3HjjjbjdbgzDiEg5b1ZWFk888QSlpaXMnj2bAQMG0L59+whE+ltmaSllS/6LufZ7whs3ENy6EdXnRUtIIqljZ7SmzVFTUxGJyYjUJqjpmagZGShxcRXDdlKNEACaipaRgZaRAX36gGlhlBRj7NmNsXc35v59GLt3oG7ZRMzenTTdvRljiwPP6ngKXTGUJSbjbd6S/S1aoWZl4U5OJqdZMxLi42tkNWjLshBCsGDBApYvX07fvn1r4CyS1PDVeMLSdZ1rrrkmom1mZmby3HPPccMNN3DTTTfRo0cPRo8eTZs2barVrhUOYxQV4V+6hMCSRYQ2rofCwygJybh79Ufv0hU1Ixs1IwulSQZqXGzFXJMUXYpATUxETUyEUzsBYBQcxti7FzN/P8b+nwlv3Yp9808k7NuNlf8z/p1bKFnuwOeOw5fVlHVtO6C1yCUjN5fUjAwcTidahP62Gzdu5NFHH2XVqlVs375d9rIk6STVeMKqKdnZ2UyfPp3rr7+ep556ir179zJ16lTS0tJOqj2jrAz/N8vwfvIe1vrVmIUFaC3aYB89Ej3vVLTspqjpGRUFEFKdpyZXXNcFncEwKhLYoUOYhYcJb/oJbeUKXFs3QuEhgvt2UvzDMnwJqexv1ZYd7TqS1KEDue3b446JOakEU1ZWRjAYpLCwkDvuuIMFCxYA4Ha7I/xMJanxqLcJC6BVq1a8+uqr3Hjjjbz55pt4vV5mz55dpQ8FyzAI7dhB8cypWCuWYHnLUZu1Iu6O+7D37F0xJ6XV61+TpKqoaU1Q0ypWSrF69cW69ErM0hJC27aiLfkSx4qvsA7vw7d7K74ln1GW3oyleV1IGXImLbt2JS4hoUpvlkceeYTXXnsNy7LYt29fzTwvSWpk6v0ncfPmzfnPf/7DHXfcwdtvv80ll1zCq6++WqltSYzycsreegP/v59DlBahdj4dx7kX4z7/YkQdu8ZLihyhaYiEBJSEBLSmzXAOGoIVChH4YRX6Fwtx/7SWhJ1byfzwVQq++JQfTutJ6tnnkdatB8lNmqArJy6fyc/PZ8+ePbXwbCSp8aj3CQsq5rR+qR58/fXXeeutt7j11lv/8PFWOExgw3rK33iFwEdvY89thT7ialznXYjerDnVunJWqpeEruPo3hNH956E9+8n9P13hH74jrTlS0hZsoBDa1ayq2tPCs44m/QBA0mOjz9ue8erpJIXD0vSyWkQCQsqktYva1f16tXrDx9n+v145n+K//05mOt+wNG7P66rb8TerSeK01mLEUt1lZaRgXbu+dgHnkGw32BC3ywh/evFBJZ/QeGmdexe8wNll15O07ZtUf7gy82IESNo27YtZWVlTJs2jZKSEkzTRNd1WXQhSSepwSQsgGbNmvHAAw/84c+NklLK3niFwCfvIcpKsQ8fgWvUddhata7FKKX6QnG7cAwYhK1LV2x9BqAvnIdt6ZeUfzyH4j3bCV9+DZk9e+E6xpzp0KFDGTp0KH6/n+7duzNv3jwKCwu56KKL6Ny5cxSejSTVfw0qYR2PcegQpS8+h//DOahx8ThH3YDzwsvQKjHXJTVuSlwc9r4D0Nq0RevaE/WVWdi/W0LB/v3svPJass4+h/ikpGMe63A4OO+88zjttNMIhUI0a9aslqOXpIajUSSs4NatlD/7BMHP56K0akvMX8bh7D9IVv9JVaKmNcF1/oXoXboipk0h7bMPKZv2ONv37iFr1HWkZWb84bGZmZm1GKkkNUwN+hPbCgTxffUFnmefxNy9DXXQMOL/ei+2FrnRDk2qx/ScHOImPYa3fUeUV2aiz3mJXXt2ErjtLnLayOFlSaopDTZhGcVFeN95E+8br2CVl2K/egzuq67HVk83f5TqFsVuxz3qOpTEJMS/Z5K5dBF7/X6scffTtHWraIcnSQ1Sg0xYoU0b8b75Kv4v5mHa7Lhv+Svui0agxsVFOzSpARGqivOc4RX7k/1rBlnfLWHvs1MQt/yF7Lbt5GLHkhRhDSZhWaaJWVxMYMli/B+8RWjjeoyc5sRcdT2xw4ZXbHAoSREmNA3HoCEVr6+pj5C57HMO2GyoN95M+imn/GHZuyRJVdcgEpZRXk5owzoC775B8NulhIqKYNBQ4q64BvdpXRH/s/+WYRiUlJSgKAoJCQlRilqqbyzLorS0FMMwSPpVVaDQdRwDBgEW1qTxpH45j/12O9qNN5PWokX0ApakBqZeJyzLHyC06Sd8b71GeNli/IcP4c9oSsz9j5ByznDUP7gQePv27Vx99dXExcXxzjvvEFeJoUK/38+ePXvkKgUNiGVZ2Gw2cnJy0CpRMbpp0yb+/Oc/U1payg8//PDbHwqBY+AQsB6Bf9yHMv999lkm4ubbSc3JqaFnIEmNyzHfpT/++CMpKSl1thTXCoUIrvke/ycfEJ7/ER5vOcVpmehX/ZmM624kIb3J8Y8/8k15xYoVXHLJJcyZM+c335iPZd26dfTr1w+/3x/JpyJFWdOmTVmyZAlNmzY97uO++eYbbrvtNlauXMkNN9zwh49zDBoC1sOIpyejLviI/T4v3DWB1KysSIcuSY3OMRPWm2++yU8//cRzzz1Hel2qqjMMgls2E5j7EcG5HxA6tJ89iU3w9hpE0tBzaHXGUHTt+MvehEIh5s+fT35+PgCLFi1i9OjRTJky5bhbTwshEHI+osGp7G7DL730EmvWrOHWW2/l8ccfP+5jHYOHYIVDWLOmkvLlAg7ZHOh33UtC6sltfSNJUoVjJixd1/nggw9ITk7m/vvvrxNX51seD775nxCY/wnG2lUUOGPY1LEH7oFnkDtwMDktmp9wwz3TNJk2bRqPPfYYBQUFR+9/7733GDVq1HETltR4zZ07l5UrV3LLLbdw33334XK5TniMY/AZYFnwwrPEL/yYQzExiOtHE58thwcl6WQdM2G53W50Xef111/HNE0mTpxIThTH4Y2Cw3hf/zeB+R8RKivlYJs8Vmc0JWvAEE7r24eEuLgTlhBblsW0adN46KGHfpOsfjFr1iyys7Np27YtMTExsjfVyJmmidfr5bvvvmPcuHEMGTKE8ePHV3qD0KPVg5oGTz8Mn77L4XAYRl1PXKtW8vUlSSfhmAlr5MiR9OjRg/vuu4/XXnsNIQQvvvhiVN5kRkkpnhemE3r/TXzuWLZ368fmrGa0OL0b/Xr1wl7JcvXXX3+d8ePH4/V6j/nzzz//nF27dtG9e3eefPLJSu2nJTVcO3bs4I477mD16tUMHTqUBx988ITznP9L2GwVPS1dw3robzD3XQ55yrBuuIWEdu1qKHJJariOmbCys7PJzs7mX//6FxdffDHr1q3DNM1a3xbBLPfgmfEU4Tf/jScnl29P70NJ0xZ0796dju3bV3r+4c033+TGG28kEAj84WPC4TAbN25k48aNHDhwgDlz5siS90Zqw4YNjB49mmXLlnHdddfxwgsvnPyXNSFw9B+EcD2D8sRElEWfcHjPLszbx5HUu29kA5ekBu64n/gulwtVVdE0rdZ7V2Z5OZ5XXyL85ssUNmvFgq59MfM6c/bQs+mUl1epZOXz+ZgxYwbXXXfdcZPV/1qwYAEjRozg0KFD1XkKUj20bNkyrr76ar799ltuueUWXn755Yi89u2ndyPmH1NwnX0hcbu2UHr3rRx68zWCZeURiFqSGofKdVFqmRUOE/j6K0JzXqEoPpkv25xKctdunDlkMFlZlSu1D4VCzJw5k/vvv79KyeoXCxcu5KabbmLHjh1VPlaqv1577TW+//57cnJyuO+++yLatq3NKbhvuwvX1WOIsdkJPTGJgqcewbtxU0TPI0kNVZ1MWMbe3QQ+epvy8lJW57YndeBgzhg8iMTExModbxhMmzaNRx99lMLCwpOO47333mP16tUAcpK8gfr15Qrz5s3jyy+/BCA/P59nn32WcDgc0fNpWVm4rvoT7v+7D0fb9oiP36b00Qcp++h9wscoBpIk6f+rcytdWIZB4MsvCPy0ln1xKWjDhjNk8GBiKlFKDP+/dH3y5MnVSla/mDVrFk2bNsXj8chVLhogwzAoLy9n2bJl/OUvf2Hr1q0AeDwennjiCRISErj33nsjek4lIR7nOeej5jTDO/vfBP67EN/MfQRXrsB97gXYO3ZCOJ0gvyRJ0m/UvYRVWkJoyeeUe334zjmXAcOHVzpZQcWFwBMnTqSoqCgi8SxcuJAtW7Zgs9kIBoMRaVOqO/bt28eIESPwer1s3779Nz8zTZMff/yxZk6sKNg6dUHNboresQu+t18jPPd9ylYtx9//TNxXXoOWni4XbZakX6lzCcu3+Av8O7cjWrbh9JtvIbYKyQrgjDPO4KabbuL9999H/59Fb0+GZVmEQiEsy6JDhw7Vbk+qWyzLIhgMYrPZ6Nix49H7DcMgNzeXF198sUbPryYn477qWmwDhuB7722CCz8mMPtFQvM/wDb0Ahxnn4veoiVKXJzscUmNXp1LWIElixDhEHFnn4c7KbnKxyuKwsMPP8zDDz9cA9FJUg0QAj0nB/0vdxK6+DI8775BeMVSvG+8ROC919FP64m97wDUtnnop7RDiY2JdsSSFBV1KmH5du8hvHsXWmIScd16oFRiBW1JajCOJK6EO8bhX78e//IlBFZ+g2ft9wSWfYmW3Rz9tG5ouS1Rspuj5jRDy8lGiYmNduSSVCvqVEYoXPY14X17ievVHyWx6r0rSWooHB06YG/XjsCgMwj8tJ7gT2sp+/or7IvmoioKIjEZNa0JWloaalIKJKagpDRBSU9HTc9AS0kBmx0UBVS1ohKykhfaS1JdVWcSlgUYO7ei+Dzo7ToiYuR29lLjJhQFR8tW2Fu2ItRvILbBQwnv3U3BtysI/bQOx84d2Nf/CKaJ6nShxsSixsaixsYhXG5EXCIiLQORkYGakYmWnoGSkAC6DaFpCFUFm45Q68zHgCQdV515pR44dJjSbZtI13W01q1R3O5ohyRJdYIAbPHx2Lp2w+hyOo5+gzCKiig7fIi9mzdSvHYtzkMHSSwvxVVYgLJjG1o4iE2zodntCLsD7DaEzY6l2xAJSYjMpqhNm6O1OQW9WXOU2Diw2VDsDjjBFj2SFC11JmGVbdtK2eZNZMUnoiSlcMLl1yWpEVIVgTspCZKSiG3ZkrQePTHDYQoPHWLntu3syD+Iv7wMdyhEfEkxcYUF6Af2YS86jD3ow2n6UH7ehbllI8GAj0AoiKUoiLgklNbt0U/vjr3jqShp6SgJiSjx8bI6Uaoz6kzCMg8fxl5aguh0GkJOIkvSCQlAB9A0MjIyyMjIAMAfDHLo0GH27d9HflkZ/kAAgcCmCFyhEHphAY7iImLKS4kP+LD7PZgFhzF2bMa//At8oSAiJR21XUdsXbuhNm+FltsKrWkzhF5nPjKkRqhOvPpKvD4O79xGEyOEyMxGuKt27ZUkSf+fw2YjJyuTnCPrbgYCAQoLCykpKaG8vBx/QgJlgQAHLQtFKNiMMHpREbFlpST6ynCVFWPt3ImxbTO+FV8hYuJRW7dFa90GpVkuauu22NrnyWF7qdbViYRVVl5Owa6dtLIMlOym8o0gSRFkt9t/0wMLGwalpaV4ysvxeL0EAgE8MTHkB4IcsEy0gB+taRtiuvQgwVuGY89OQj+tR/npR1SXGyUtg2DTZqit2qF37YaW2wrhdldsVimHD6UaVCcSVigYJFhchM0yUDMyUaq4uoUkSZWnqSpJiYkkHVlM2rIsfH4/ZWVl+LxeAsEgJSmpFHq97C/3YKWkY2vRhpSAn/h9e1A3b0D94jP0FcvQvpiHktUUtX0nbD16oTVtinC6EbJwQ6oBdSJhEQxCaQlCCJTYWFDki12SaosQApfTicvpPHpfKBTC5/MRCATwhULkFxSw/8ABtmXkYLVqT5LPQ8bmn3BsWI1t0wbsK74m/P5saN0B+4UjsHXsiBIXV1E6L0kREvWEZZom/tISnF4P2Bxgt0c7JElq9HRd/81anDkZGRjt2mFYFmUeD3t//pmt7fIIDjiD+J/3krh+NTG7t5Ow7Aus/87Hl9MC2/BLsPfpj9osF8XpiOKzkRqKqCcsr8/Hvh3bifH7sWLiEQ7niQ+SJKlWCSHQNA0NsCckkJKQQOcOHfB4vezavZsDPXpxcP9+7GvX4N68jsyiw1jPPo5/9kvovQdg69kPW/eeqKlp0X4qUj0W9YQVCAQo3H+A3HAIER+PcMr5K0mqL9wuF+3btqXtKadQVFTE3g4dKN5/gI1rVuHYvJH0/XuI/+xjQl8sINC9N3qPPjj6DUTNyo526FI9FPWEFQqHCZQUE2sEseKzELLgQpLqHUUIkpOSSE5KwtOyJQfbtObQnj3sXr8Otmwk6+fdxC37Ev3HVYSXLkbr1htbv0Fo2TmICGwDJDUOUU9YlmVhBAK4QkFEYhK4ZEm7JNVnbpeL3ObNyUhPp7BVKw7u28+OH1ejbmpJ822bcH+7HNv6tYS++hyt3xAcZ52DmpwsN6uUTijqCcswTQgEsPl9iMQkFKecw5KkhsDpcJCVkUF6kyaUtmnNzh07WPf998Tu2Eb22lXEr16JY/0aQp99hH7+CBwDz0BNTUWoclV56diimrAMw6C4qBhCQQh4UVNSUNxyczpJakhURSExNpbEU0+lXfv2bNmyha1dumLbvpUmy/9L2p6d8MSDBN98BdsFl2HvNxA9t6XcDkX6nagmrFA4TMGhfDS/r2KLhLh4ecGhJDVgDk2jY7t2tMnNZfvOnezKO5WDa34g8cdVZO7fg/nsowTenY393Iuw9R+CrV07mbiko6L6SgiHw5QXFeEKBBCqhrA1vGuwFi9ezN13383GjRujHQoA8+bN429/+xubN2+Odij1wvr16/nrX//KN998E+1QGhS73U67U05hYP/+ZJ93Ad6r/sT6weexvUtvfMEgvhf+SflDEyif/gzBH9dghULRDlmqA6KasAzDIFBeTkw4WHHBcAMsaV+2bBlPPvkkO3bsiHYoQEUCffzxx+tMPHXd5s2befrpp1mzZk20Q2mQHA4HHdq1pWvfvjS79DICl45kwxnD2d2jP779+/C88TKeJybhmf40wTWrsfz+aIcsRVFUhwQty8IMBogNhRBOF6IBzl8pR4YzysrKsCyrYqvyKgiFQhQUFBw9TlVV4uPjf7MKQWXb8fv9+P1+hBBVjqOx+vXfzzAM1CouNWSaJocPH8ayLCzLIj4+HqcsLPqd2JgY2rZpQ0Z6OvmntGXX+nUcysklffsmUjavx7ZjK6EVX6P1Gojj/IvRMjIQ9XhVHPn+vWHkJgAAIABJREFUOzlRTVimZWH6A8QEAwhXDCI2Lprh1IhfXpgTJ06kVatWnHbaaVU6fsOGDQwfPhxN0xBCkJaWxnPPPUfnzp2r1M66desYPnw4xcXF6Lou3zBVNGXKFDp27MjQoUOrdNz+/fs555xzKCoqwmazMXnyZK644ooairL+i4+LIz4ujqysTPZ36sxPq1ay55SO5KxfTfLGNbi2bSb85Wfo51yM/axh6JmZoEW92LlSVFUlNTWVffv2UVxcTCAQwF6Pk240RHVI0AIUw8Dp8yDcMYi4+GiGU6NSUlJwOKq+nprdbqdly5YEg0G2b9+Ow+E4qXYcDge5ubkkJCRgWVaVj2/skpKScJ/EtjeaptGiRQtsNhvbtm2jrKysBqJreFx2Oy2b5nDuRRdx6pVXcfDKa1h93Vi2tu1C6eF8gjMep/SmUZQ/P53QTxvANKMd8gklJiYyd+5czjzzTN577z3Gjx8vXw9VFPWiCyPgRykvRcTGIuIbXsL6JTlMmDCB9u3bV/n4tm3bsnjxYm644QYAxo8fT9u2bavcTrt27fjqq68YNWoU4XBYJq0quuOOO+jbt2+Vj2vSpAkffPAB//jHP2ogqoZPAM2yszjzzLPoMvx8yq4fw6YRf2LjqT0oCQbxvfhPSv/6Z8qnP01g7RqsOp64OnXqxIIFC5g5cyaff/4548aNo7y8PNph1RtR7UuXlpZiBgLgKUNxx6A24B6WYRgRaces42/IhipSfz/p5CiKQnZWFunp6exu0YL9eaey44dV2NevJnPXNmJenoG+9L8E+w7EPugsbKe0rdNDhcOGDePjjz9m5syZ6LrOM888c3S+VPpjUfuLWpZFSUkJlt+HCPlR3DEVe2FJtUK+OaT6SFPVo8s+5bfMJf+0ruz44Xsca78nZ+sGbLNfJrzyGwK9+uMYcjZas2Z1cq1CIQQjR45kzZo1PPvss8TFxXHvvfcSE9PwCs8i6ZgJq7y8HL/fT0FBAYZhEAqFOHjwIPHx8bgitDitaVmUl5Sg+X0olnXS24qYpklxcTGhOnidRkxMTJ3s7luWRWFhIYWFhXXy91ZXuFwuiouLox2GdAxOh4NmOTk0SU2l4JRT+LnLaWxYuoSUNStJ3bge57YtGMv+i37ORTiGnosSF4uoY1/S+vbty9SpU7n22mt54oknsNvt3HnnnTJpHccxE9bMmTOZNGkSTqeTwsJCFEWhTZs2TJo0iTvvvDMiJzYtC09JCXafF1XVwHVyfySPx8NNN93E8uXL69ywjRCC0tJSFEWpM7H98gVkzJgxuN3uqM1lWZaFpmnYbDaCwWCd+f38mhACn88HIOf86iiHw0FWejpN0tIo7Hgq2378kfXLltDk269JWbMS909rCX/1Ofarrsd22ukoJ1GwVFOEEHTr1o333nuPQYMG8cADD+D3+3nggQfqVPWgqqpHL+fQNK3Kl3ZE0jETVmpqKnl5eQghWLNmDZqm0a5dO1JTUyN2YsuyCPp8xAaDKJoN4hNOqh3DMNi7dy/5+fn07NkTXdfr1IeLoijYbDaaNGkS7VAAaN++PYMHD0YIEdXfk6ZpbN++na1bt9KhQwfS09Pr1N/tF4qiYFkWOTk50Q5FOg5NUUhLSiRt4ABKe3Rny/qhbF36NckLPyFxySJiVy4lcOZwHOdfgq1Tlzp1DVfbtm357LPPuOeee5gzZw4ej4fzzz+/Tox+KIqCz+fj0KFDAOzbt4/58+djt9sjOp+uKAqDBw8+cTK0fuV//tfatWuXlZeXZ/Xo0cMKh8NWJPmDQeutl1+2ll53lZXfr7NV/torJ9VOcXGx1aNHD6tTp05WcXFxRGOsSx544AELsObNmxftUCJm2rRpFmC9/fbb0Q6lxs2ePdsCrOeffz7aoTQa5V6f9cM331irHpporTl7gLX71GbWoSE9rJJHJ1mBdWujHd4xPfjggxYVV/w0qpvD4bA8Hs/R38P/5qJfHLfoIjExkbvuugtd1yM+SW8BhMO4QkEUm6NiL6zqtFcHv51LlSMrH6Wa4HY66NyjB4Vt2lDYsy+lXy7Au+wr4t58mfAPK7Gfcz72QWei5TSNdqhHDR06lJiYmDpxYb8QglAoxEcffUReXh55eXmEQqGIf9ZaloWu65Vavee4CSs2NpZrr702YoH9mmGaWKEgNp8XRddRkpNr5DySJDVuSYmJxA8eTEn79nh696Nw/qfEfruE0L+mEfr+WxzDLsDWvRdKQgJEOVH06tWLXr16RTWGX/P7/ezdu5dzzz2Xs88+O9rhRK+svbS0lHAggFJeCk47anJatEKRJKmBU4Gk9HTizzqH2LxOlHyzlML//IuErxcT2rwRW5+BOC+9Er1Va0QUiwrqoro0AhK1Os/8/HyCXi/4ylEcTtT0ulGUIElSw6UqgoTsbLIvGUHWtBfxX3UjHn8A3zuvUXb7DfjefQtTLpdUZ0UtYRUWFmL3e9EsE8vhQJHXHkiSVEtUIYhr2pQWd44jcfrLmBePxOsPUPbg/1Fy5834v1iIWQevoWzsojYk6C0rw+nxoCsKwi1XuJAkKTri27Uj9t4HKOozEGvuB3i/mEd40zpsg4dhP+cC7Kd1rZOrZTRGUUtYwUCAWL8PXdUQSZG7vkuSJKmqFF0nefAQgnkd8XTsTHjRXHzzPiC07geC/YfgvHRkxVYmdaB6rzGLWsIywmFcfh+qpiNS5fyVJEnRZ0tLQxt5NcGup+P7bC6hLz7DP+cVjM0/YT/vUuy9eqPExyFE3VrmqbGI3uK3hoHdU46qqog6sgqEJEmSottw5HVCz2lOsEcfPG/8h/CKrwhv/olg/zNwXjQC2ylt5TBhFETta4JhGCilRSiahpqRGa0wJEmSjkmNj8fZtz9Jjz2D655JWKpG8IM3KLrrJkpfeZHQwYPRDrHRiUrCChkGRigEnnKErqFlZkUjDEmSpBNSYmJwX3YFSS/NwXHNn9FUDf8/HyH/z1dT/tmnBOWK/rUmKkOC5R4PVmkpSjiIsNtRExOjEYYkSVKlaZmZxN56J4HuvfHP/xTl808pHX87DBmG+9yLcPfoheY8uW2SpMo5bsKyLItgMAgQ0eXuy8rK0YqLsFmAwwXyynJJkuoBoWk4evVBb30KwdO743//LQKLP6N84zq8vQbiPmc4MXmnotTh3Y7rs+P+VgsKCnjkkUew2+1Mnjw5Ygvglns9aCVFaEJAXAIoMmFJklR/qCkpOIdfiNamLdrCuQQ++4Tgp+/iXfcDnp79SL70CrSUVBSbLdqhNijHTVgej+fo3idjx44lPj4et9td7ZP6/H7spaXoikBJTAFNJixJkuof/ZS2qFk56F17EvjgLQJfLya8dSOF369AG34ZiYPPQImPr3O7HddXx/0tCiGw2Wz88MMPtG7dmlmzZkXkpP5AAFtpCbqqIlLTEKrsPkuSVD8pMW4cvXoT9+DDxD85A9fpvREbfiQ4eTyH/u8WPF8slOsTRkilM4XX66U8QmtrhcJh7J4yNFVBSUsDOd4rSVI9J1wu7L36YO/VB9+iBQTen0NozXeU/d9N+HsNwHXRCBx9+terdVMtyyIQCGAYRrRDASqRsEzTJDMzk5EjR9KvX7+InDQcNrCHAqiKguKOkd1lSZIaFOcZZ2Hr0pXAV4sJLl5A8NullK5cTmjo+djOOBt7954oEZheqWm6rnPeeefRqlWraIcCVDJhNW/enMceeyxiRRemaSJME0UoYLfJ9bkkSWpw1ORkXBdein7a6ejffUPgs08ILPiI0JqVhHr0wTZ4KLbOp9XpxKVpGhdeeGG0wzgqKmNxpmmCEQabgrBFrlxekiSpThGgN2uOnp2DrXNXfF99gffjdzHnf0zox+8Jdu2BY/jF6C1bIxyOaEdb50UlYVkApokQCkKXZZ+SJDVwqoreqjVqTjNsPXpT9smHBOZ/RPjdNwiuWIpj+KXYzz0fPSVVXpd6HNFJWJaJZRqAhtBlwYUkSY2DYrfh6NAR+ynt8J53EUWzXyH05XzCT08mOP9D7COuwTlgMEpKipwqOYaoVDtYYQNhAYqQFYKSJDU6QtNwd+hA1kOP45z6EoEh51L68x7KJo6j+P9uxvPumxglJdEOs86p9WxhmiZBvw+BBQiETFiSJDVSAkg+/XTcbdpQuGgh3kWf4v9uOa6f1hH6djnOS0ZiO707QpWV1BCFhBUMBgn5/agCEAIhx2slSWrkHHFxpF98CWWdulDy1ReUfPYJrkVzMbZsxHHeRdiHnoeWnRPtMKOu1hNWKBwmHAgioOLrhbwGS5IkCQWIb5mLMyuT8s6nceC9twh9PhfjPy8Q3rIZx2VXYe/cpVEXZdR6wgoEAoQCfhQhqPgTyYlFSZKkX9gcDpK6nIbeIpeDHU6l4OWZJCz8GGPXdszRY3EOOqPRFmTUevcmEAhUDAlCxS+9cf7eJUmSjis2IYFWV4wk4clpFPUdgnfTesrvvxPPnNexAoFohxcVtZ6wQqEQVthAVVQQsoclSZJ0PBkdTyX7b5MxxtxJue6g/OEJlP9zCuH9+6MdWq2LyhyWFQ5XFF0oSqPt2kqSJFVWXGoqzmv/RFF2DqUznka8+TJGYSHuP41Bb90m2uHVmlrvYYUNA2GZqDJZSZIkVZrudJJ67nASxk/E17odwS/nUz7jaYJrf6yxc4ZCIV599VXWrl1bY+eoitq/DsswUAwDVQgQqkxakiRJlSSEILlff4Sm4vvXc1grvoZwGG66HVuHvIifLxwOs3TpUpKTk+nYsWPE26+q2k9YloWqCFRFqbgYTiYsSZKkShNAYq8+aC43nueeIbjsvxAIoP79MdTMjMieSwhUVY3YTh3VVetRGIaBYlHRw5LDgpIkSVWmAPGdOpPwf/ch+g4kuOIrSh9+ALO0NNqh1ahaT1iWBTYBmhBYiiYTliRJ0klytW5D7G3jEAOHElqykLJ/TsEoKIh2WDWm9hMWFkoojGIBuu1IabskSZJ0MpwtWxIz+jZo15ngJ2/je3cOlscT7bBqRBQSFihGGMWywOFs1MuMSJIkVZsQuPLyiP3L3VixcfjefR3fwvlY4XC0I4u4qCQsEQ4jLAtsNrmWoCRJUgQ4e/fBec0YrLJSPHNexb/q24i0axgGhYWFEWmrumo9WwghUMIhhGkgbHaETFiSJEkR4b5oBPbhl2Jt3Uj5m68R/PnnarWnqipOp5O///3vbN68OUJRnryoFF2IQBDFMhEOJyhySFCSJCkSlJgYXFddj96rP+aShXjefxvLME66PV3XefDBB0lOTmbAgAFs3LgxgtFWXe13bwQooWBFD8thl0OCkiRJEaQ3bYrz8qvRmubieWk6xYs/r1Z7LpeLSy+9lAMHDnDJJZfw1VdfRSjSqotCthAQCoFZUXQhN3CUJKkxM03z6C1S7N164LjgchxuF57nn8V74MBJt2Wz2Rg7dixpaWls2LCB22+/ncWLF0cs1qqo/SFBASIUQpgmwm4HufWzJEmNVGFhIXfffTejRo1i1KhRzJ49m1AoVO12hc2G46xh6L0HoW1eR9HrLxOqRqm7ruu88MIL3H333WzevJmxY8dy4403smrVqmrHWhW1vjSTZVmIcBCBCQ6HnMOSJKlRys/P59FHH2XatGlHk9S3335LYmIiw4YNq3b7ano6jiuvJfT9Cnyfvk9+m/ZknHMeykmMaimKwvnnn0///v1RVZWpU6eyYcMGNmzYwMKFC3G73dWOt1Jx1MpZfkUIgQgGwTBRHA45hyVJUqM0ffr03yQrgO3bt/Pjjz9iWVb1TyAE9k6dcVxxHc5DB/B98DaFW7ZUq8mEhAQmTJjA2LFj0XWdb775ht27d1c/1kqq/bUETRMrFADLBKdbzmFJktTo7Nmzh1WrVv1u+M+yLP7xj3/w1FNPRWZOSwhcl1+Fo0d/7CuXUvzOG5QVF1WryZiYGB566CEmTJiAoigMHTqUdevWVT/WSojCflgmIlwxh6W4XHKlC0mSGpXNmzdz00038emnnx7z5x6Ph3vuuYdHHnkkIudTYmJwjhmLKysHa/7H7Hr3HXyBQLXa1HWdv/3tbzz55JPs2bOHyy+/vFYKMWo1YVmWhREOgxECKq7Dkj0sSZIai927d3P77bczd+7c4z7OMAyefvppgsFgRM6rn9oZ2/DLiLfCiA/nsPvrJVS3/6aqKjfffDOpqals2LCBO++8k88/r14J/YnUesIyg0EUwwQhEA6HXK1dkqQGz+PxsHfvXsaMGcP8+fNP+PhfihgeffRRjGpc+PsLxeHAdf6F2PsPIXH/HnyvvcTBXTur3a7dbufvf/87qamprF+/nrvuuouFCxdSXl4emXm4/1HrCQvDQDUMQMjelSRJDd6hQ4f4+9//zmWXXcaCBQtO+PgmTZowefJkZs2axerVqyN2fZaalYPjkitxtO1A4ppv2fXG65R7vNVu99prr+Xdd9/lr3/9K5s3b+a2227jyiuvxFMDK8bXalm7aVmIUBDNNLAUFbRar6qXJEmqNcXFxUyaNIlZs2ZV6voqIQS33XYbt912GwA9e/ZEi+DnpL3L6RgXjcTau5uED99gbcvWnHbBhdhttpNu0+12069fP7p27QrAlClT2LZtG+EaWC2+VntYFQvfGijhcEWykj0sSZIasJkzZ/6udP14mjVrRteuXVFVFVVVycrKQkRy2kRVcJ53PrZLriKlvATHqy+wfslXBCMw7OhyuXjooYeYOHEiuq7z7beRWS3+146bsIQQKIoSsbFI07IgHEIzwgjdjlAj981BaQTXcwkhUBtgkm+Iz+mPNKbn2tht2rSJpUuXVvrxbdu25bnnnuPss8+uwagqVsFwX3sj+hnnkrZrC8G3Z7Nr7TqMCHzOa5rG+PHjmTx5MldffTUffvhhROeyjpkx5s6dy0cffUQoFGLPnj3k5eVF5GQWFcsyqeEwlisWtMi8eVVVZdeuXdx7773YbLYameyLJpvNxtdff41lWcyYMYNPP/00ouuO1RZVVY9+W7TZbKxcuRKAf//73yxfvrxePqfK0HWd9evXAzBnzhw2bNjQYJ+rVEHXdVavXs3ChQsr9fgWLVowdepUzjrrrBqOrIISG4vzT7dibNlM6ppvOfjhuziTk8jOyal+24rCLbfcwqRJk7j99tvx+/1cfvnlEYj6DxLWmjVrePHFF4mJiaGkpCSivRf1l6ILuxOUyPSwhBAUFRUxZ86cBpesoOL5+f1+ABYtWhTRMe3aIoSgrKzsmOPan3zyCZ988kkUoqp9CxYsqNTEu9Q4xMTEkJiYyPPPP88ZZ5xRq+e2deyIfdSfiJ/5NMGvv2BPZiauESNJio+rdtsOh4NHHnmEcePGMWHCBCzL4uyzz/7DeS0hBElJSScc/jzmJ9+VV15Jr169yM/P5957743Y5JkFR6sEhd0ZsR6WYRjk5ubyz3/+k9jY2Ab37dXlcjFjxgxeeeUVHnjgAXr16lUjE5o1SQjBxIkTo7bKsyTVNenp6YwbN44+ffrQrVu3qMTgGHYexrYtJH30NuWffcrWnOacNnQoWgTmzcaMGUNBQQGTJk3i3nvvZdasWccs0bcsC7vdzieffILD4Thum8dMWM2bN6d58+bs2bMnognAOlIlqJoGuBwRqxK0LIu4uDj69u1LfHx8RNqsaz799FOEEHTp0oW+fftGO5yTcuqpp7Jjxw40TUNRFIqKijh06BDp6enExsY2yN4xVAyRlJSUcPDgQdLS0oiPj2+wzzUYDHL48GEyMzOjHUrUCSEoLCykoKDgmD+/7bbbuP3226M6/67GJ+C4YhTGz7vJXP4VG9+bw85TTqFVixbVb1tVad++PZqmsWvXLoqLi4mLi/vda9+yLBwOR6XeE8fNGJZlYZpmxKpULAsIhVCNMLjcES26aGi9qmOxLKve9ax+7ZlnnuGZZ545+v/Tp09n7NixTJ06lREjRkQxspr3xhtvMHLkSCZPnszo0aOjHU6N2bRpE3fccQfz5s2Ldih1wkMPPcTf/va3392fm5tL165d60SxmK1la6yr/oS172farvgva2a/StJf7iQpNrbabVuWhWEY6LrOjBkzGDlyZLXaq9XflmlVrCOoGybC6Y7YkKAkSXWDaZoNtvd4Mo5Vzt6uXTuee+45hg4dGoWIjs3eozeOK6/DnhBP8wUfsW7ePLxeX8TatywrIq+LWp29tyyroodlGeByITS9Nk8vSVItqAu9hrpi2LBhJCYmHh2lCoVCdOrUiSFDhkTsHGVlZbzwwgscPHiQf/zjH9hO5iJgTcV+5tmEt20i6a3/UPzRO+xo1ox2PXpEY1v6P1T7CSscQrMqFr6VFw5LUsMihCAQCHD48GHcbjdOpzPaIUVVjx496NGjR421b1kW7777Ls899xzbtm3Dbrdz8803k5iYeMIChv+lJiXiHHkdxupVZGxey4HP5rI/K4us7Owair7qandI0DQxQyFUy0Q4nQg5JChJDYrNZmP16tWcf/75vP/++9EOp1Ho3r0706dPp127dkydOpWLL76YF198kUCVtxAR6M1bYL92NLGWiXPZf9m/bCmeI5fU1AW1PIdlYYWCaJaFcMeAKocEJakhUVWVwsJCli9fzt69e6MdToMnhKB9+/acddZZvPPOO8TExPDNN98wYcIEXnjhhZMq0nIMPgvtzPNIP7ib4LwP2bNxYw1EfnJqNWEZhokZDKJhHZnDkj0sSWqo5DJUtatdu3bMnz+fzp07U1payvjx40/qukfF6cQ96npsp3Qg86cfyf/kQ/KLqrdLcaTU8pCggREKomKhuGXRhSRJUiR17NiRF154gd69e+Pz+XjnnXfw+ape7ae1z8N+wQjcuk7M0sXsXLGCk1ke99eVgZGoEqzdHlYoRMhbjoAjRRd1qf5EkiSp/jv99NOZMmUKvXr14vnnn2f8+PFV3rlYAPb+g7D16EP6oX2Uz/2QgsPHvgD6eDRNw+Fw4HA4IrKkXO1mjHAY0+MBocgKQUmSpBrSs2dPHn/8cfLy8pg6dSoTJ06kuLi4Sm1oWdnYhwzD1iSTzB9WsGnp14SruEBDt27d+Pe//81//vMfevfuXaVjjxlTtVuoAjMUwvB4QVEQ8loNSZKkGtO5c2c6derErl27eOaZZ9A0jTFjxpCcnFzpkne9Ry/0JV1J+OQd9v33cw737EWTJmlUdu2jrKwsLrroopN/Ev/jhFlDCIHX62XDhg0cPny4WiczDQMzEKzoYQnZw5IkSaopDoeDGTNmsGzZMpKSkpg8eTLdu3fn+eefr3T1oJqUhG3ocGwZ2WR9u4RN3317zAVsa8sJE5aqqqxevZqOHTsyY8aMap3MMk3McAiEqLhJkiRJNUIIQVxcHHl5ecydO5fOnTuzb9++KlcPOnr2Qu3Zj5jSQuyLF7J/374ajPr4TpiwDMMgIyODu+66i/79+1frZMICyzBkwpIkSapFHTt25Pnnn6d3794Vu2ZU4fNX6DYcl12FKy4O59pV5K9ZgxGlxcaPm7CEENhsNtq1a8djjz3GwIEDT/pEFhAI+o/8l0xWkiRJtalr165HqwenT59e+SkeRWBr2w7RrS/xhw/Cym84fOhQzQb7R6Ec74fJyck89thjPPDAA9XeYiQYDFJYVIyiqoDJke0cJUmSpFrSs2dPHnroITZt2sTo0aMpquQFwULTcFw4ghhFgR+/p3DTTzUc6bEdN2G5XC6GDBnCgAEDIpKwDhUUgKaDZVbcJEmSpFr1S/XgggULGD9+PDt37sTr9Z7wOFvHTqjtOxH/826MNasp9Zz4mEirtdryYDBIaVkZdncMmGbFTZIkSapVdrudF198kRUrVvDZZ5/RoUMHJk6cSGlp6XGPU5KSsJ9/MfFGEN+qbzi8Y3stRfyrGGrrROFwGF8ggCM+Fktu8iZJkhQVQgjcbjd5eXl8+OGH5OXl8dRTT/H222+f8FitXR5K63YkbN+CuWkDv9+esmbVWsKyTBOhqcSnpGDJHpYkSVLUnXrqqVx77bVomlapjTf11m2w9epHrLecshXLKTuJ5Zqqo9YSlmmaKJpOQkpaRe/KkAlLkiQp2swqdB6EzYae1wmtSQa21d9h7avdLWRqr4dlWei6jdiERCzA8vsgildMS5IkSVWn553K/2vvzIPkKO49/8k6+pxbGh2gwxjQwSVbMuK+HgYLw4L93r5d1mEiiHXY/9iB7Qh7jfGCYwNi358v1ouxIQB7CYPXxDNewmFz2BwO8Z7AAgESloTESkYraaTRCM3R01dVZu4fVV3TMwxCPWi6p/HvE9HR2dXVv8rK/GV+M7OyM/1z19B99DCj27bOaBX3mdLcHpbrkM7lwHExhQJmBpuLCYIgCK3DXbAQb9W5pNIZRv/4NKaJOxI3RbCstdG0SQuOnwYvhRkZhmqzH9kJgiAIHxV/7WfwPnkG3dtew46NNe26TREsYwylUglrDSqdhkwWRkawQWN7tAiCIAitxz9zJd6ZZ5Gtlhl87tmmzfpuqmApgHQGlc5ixkawgfSwBEEQ2o50Gvesc1HdPQTPPdO0+QhNE6xKpQKAymZRuSxmdFSGBAVBENoQ5Tj4n16Hu2AhuYF3MYXmDAs2TbDCMMRRCpXJQDYPo6PYUIYEBUEQ2hFv8Sk4i05FFcYo79jRlP/WHlewtNYcPnyYwcHBj3whrXW0rH02h8rnsYURkCFBQRCEtkSlUrinr0KPFxl/Y0u0IMQsM61gHThwgM2bN/PMM89w7bXXcuONN7Jp0yYOfoSNu5RSKGpDgnlsYQyq0sMSBEFoR5Tj4H9qHcpo7N7d0V6Hs8y0gvXAAw+wfv16rr/+erZu3corr7zCxRdfzIMPPjijiyilcF0XYwwql8PJ56FYkEkXgiAI7Yrr4p91No7vkioVmtIB8aY7+NnPfhalFOl0OjlWrVa5+uqrZ3QR13XJZrOQDAl2YIOe8pcyAAAYmklEQVQKhCJYgiAI7Yrb04OTyWOLRfR77+F0ds7q9aYVrMsuu4zLLrvspF3EcRw6OzujZ1iei5PLRdMgZZagIAhC++IoVFcvwcgI5cHD+MuXz+7lZtV6jOu6dHZ24sSbQKp0GqzFFAuyarsgCELb4uB0dBEUC5SOvdeEqzUJ3/cJw5AyoFJprHIwY2NYWU9QEAShPVFANkdYKhMUCrN+uaYJluu6VKtVDh48iJPvBM/DDB/DynMsQRCEtkVZTVVrStWA2V6gqWmC5TgOxhgODxzC7e5FxQvg2kB6WILwcSSU0ZO/DcoVDBCq2b/UtJMuZoN0Ok1PTw/Dw8dQXd3gxyu2y9T2hjiRXUGFucvHPf+q1SqrVq3i1ltv5aqrrmp1dITZxlgYPUbgulgvNeuXa5pg5XI5li5dyv7Dh2FBfzTxYvgYfExXbA/DkLG6ZfcdxyGfz+N5jSW51hqtNaVSCYDCDMeJtdaMjIyg4okvjuPQ0dGB67ozsvdxxxjD6Ohosgq1Uop8Po/v+w3bCcOQ8fFxIMo/a22SD43YGRkZST7PND6zTRiGfOITn+B73/teq6MiNIOwih0fQac7MB0ds365pgmW7/vMmzePt3buZHjxYtyODsyRw9h4UdyPG3v27OGb3/wmWmuMMcyfP58f/vCHrF69uiE777zzDt/61rfYtWsXAPfffz/nnHMOK1asaMjO7t27+frXv47neYRhyCmnnMJdd93FmWee2ZCdvxUGBwf59re/zZEjR3Ach1QqxR133MHFF1/ckJ2hoSFuu+023nrrLQAeeeQRLrjgAi688MKG7Bw9epSvfvWrifB1dHRw++23c8EFFzRkpxk0a6sJocVYSzgwANUKursfk8vN+iWbJlgQ9bJKhQKHlGJ5bx/BoQPY4vhHtus4zpwbaikWizz//PNU439/L1y4kG984xsN2xkeHubpp59OPm/bto2hoaGGBWt4eJjnn38++bx8+fJJPcBW0mivsxkEQcBLL73E/v37gWhI+9Zbb23YTrFY5LnnnmNoaAiAHTt2JDYbtfPCCy8wOjoKQGdnJ1/5ylcatjPbpFKpOZmfwgcz07rTGkN121Z0oLHzFpD6OPWwAPr7+1m5YgUjxkDffOxf/y/VXTvxVp2FmkGibd++na1btzI4OEilUuHZZ5+lo6MD0+L/djmOw9tvv53E4/TTT2fNmjX09fU1bKu7u5srrrgCiIZbFi9eTG9v74zsXHrppfi+z6uvvsrY2BgbN27k6NGjiag2k1wux+uvvw7Ayy+/TC6XQzdpT50Pw3EcBgYGkmHYJUuWsHr1ahYvXtywrVwux8UXX8yxY8cAyGazM7KTzWa55JJLKJVK7Nixg+HhYf785z+TyWSSrXtajeM47Nu3j0OHDvHUU09hrZXe1hwnnU7z+uuvE4YhQaPzCbQm/PO/UbGG0vLT6c7nme15F8rWeZRSatYd7MCBA2x56y3O3b6Vrt//BvczF9H5g/+GMwN1fuyxx/jjH/9ILu6KNpzgs4jjOPi+T7Va5Wtf+xpr165tdZQSHnnkEV555ZVkBf1W4bounucRBEHLGxlTUUol+ffFL36RDRs2tDpKCb/73e946qmnkuHmuYTjOLiuO6fKonB8HMchk8lw8803NzTEHPx1L+P/5esM7dvHrm/czkU33EBvT89JidMHaVHTBcsYw59eegn27mHFr35GJpuj65/+B36DQ1yCIAhCa7BaM/6/HqL84P9k4IyzOPCfbuWz11xz0oaDP0iLmv7gx3EczjvnHCrz5nGkdwH66BHKT/+22dEQBEEQZki4dw/BKy+hK2UOnLeOJcuW4TRhxnFLZirM6+tj9XmforBmHQVrCf70B6q7325FVARBEIQGMOUyleeeJvzLVsZWnENpyTJOO+20ZK3Y2aRlU+uWL1vKin/49wRrzqeyeyeFnz1AaazA3BqRFwRBEBIslJ//I9Un/4WyMew459Ocft4a8k2Y0g5NniU4lQWnn0HPN7/DyLEhik88xt7xEu6X/zO9pyymM5ejq7NTpsgKgiDMEUrP/J7yT/6Z8aFBdl78d3Rccjlnr1rZtOs3fdLF+zCGyrY3Gf/v/5XKjrfYvXod49dej126lFw2SzaVIp/P09nZSU9PT7RNyRz7z5UgCMLHGVMuU/6X/03p4Z8wOjrMvvWX4//9f2TNpZeSz2RO+vXmzCzB6bDGUH31z4z/8z9hdu+gsnoNo2svoLLufKrZHOVKhUq1Ctbiui6+55FJpxMR6+rqIpVKJUImgiYIgvDRscUi1dc2U/7D76k++1tGlcvQlRvo/uI/svTcc8lns7Ny3TktWABYS7DtTYq/+BnBq5tQ6TTeitU4ay8gPOc8Sp1dVLQhsJaK1hRLJYqlEib+c6Lnuvi+Tzabo6urk66uLnK5HK7ropTCVSpZEaPRddwEQRA+9liLDQJstYoZOkJ1y6uEW16h+petBAf3M7boVNTff4meK/+OniVL8GdxVuDcF6yY8MABKv/6JyrP/g69aztOOou7cCHO4iW4n1yBs/QTsHgxQS5PKagSaE01CAl0SKFUYrxQoFQso020aGw6lSLd0UF+8WI6OyMhy2azybOxmojVhMxxHBQKpUDFaWGNBQzRZi8WrI3CtbSyFoj/1T/tOXXh+PvocN0UE2Mm7BkT50PtfKKN0urDk4KKKMK1F6CcKEwUVs6U86KbT85XyomNTbGFirbBpmZzhhk714jzwyZ5MF2e8v7wiTR2PqgIfdBPj1fmbO13dopdO/mntu4cVbuXOGzqjsV+Zq19n88l+V2LZ72vKBU19Cb5CFN+o+r8SU18toBTf04tzmpymnzY8Qlvn8I0ttuFOn+L6o+619RzPox635ymrki+txZrDGgNYRht8VQto48cIdj1NnrbFvSeXQSDhzGFMcr5TvQlV9L3hX8ks3IV2VnqVU2+lTYRLAAThuiDB6hueY3K/3kc/ZctEIaQyaDSGVQmg/JT0bx/L4VyPaxShNZS1ZqgWo1WOQ9DlLFUFixi8PNfoBAEBNUq1WqA57p4nkNHvoNcLktnRwe5bI58JkPG9/ABT+ukxUFQhSDAhmG0S3Ldy4YBBCFWT4TR8XlBAKEGHWB1GH1Xb0PXhYMKNgiia+kwqkRij0vqLYgqnwQFjoPyPHA9lJcCzwPPR6VS4MdhPwW+j/J98NNROOWDn4q+S0Uv5XmoVAqVSmFjG8qv2Yo/e34UdhQnVkNM51MTFeEkka1Vco4zIaROvYi64IAiPo6NGxTEBVFHBVGbWPh1tAVCUhEYVBBgyhVspYytVuP0D0CbKI+0xmo98W7rSv8UwVJTKtOJe5omCaydaHgkDZDjVE7W1sXdROJq4nuoF57aca2jimjKy2oNRqOCAFsuQ7USLTpdjcIEVWyoo/x0XHA9cF2s66JcFzwfXDf2Ly/2r8jf8Hzwveg814v9yZ34zot+ozwP63ko10saSqpe9JTD+0TQUVMaUvFQ/yR/iM/xvchPa+XAdRMfqtlKbDjRu6rZqDXcnAlfU46TxEkl37vx+5T8TvLKTMqDel+s+RMm9kejsdUKplyGuH4x1QCq1bgOCOLd2Ov8Yzp/meRzkxuaSkVpZZUTuZuKGp421NjCKOa9o9jDhzEH9mGOHsaMjxGWK9F1s1mKC07BufIa5l+zgczSZfhNWHpp4nbmsGCZ8SJ64CD22FHMe0OEAwfRg4cxg4exw8cwB/djB96FMJhohbyvxanqGoMqebfWglLYXCc2nY1+ajRG67ighigTgrUoLA71zjGBjVtvthZGRacohZ3kLFOdPHL8pDJwJgqDcqMCoFwHnKhyUK6H8uKKQn3As7ikoRRV1tYYTBhgdIgJdRQOdeR4Ji5A2sSFJar4VFzAlLVROL5/LHEaWBQqSY+oLlFJ+U8iEheC4/MBgpVUEm58/96kig5/qvj6ibgqP6pErbGRuGuNCUKolNDj41AqYstFqJTjBoBGWR33mid8xyYJaut6C3W9hloYW9d5sRN3ZOPwlHJT//2HpQQ169O7XpxcKtmWxE46p+aHE02axFfreioWhYl91MSVr4l918TD5taY6L80xsSdOotSFmUsjlVAfNwYlFIoY6LkMTY+v3bcouIRCQUoa2I/qZ33/rtXk4YQprl96hptsc9F2aPiVy2ZpuSdciKxdWKxTIQ2BSk/2sMp8Ss/brilJzXkVHzMSaUgnYrsJQ2uOILaQKWMLZWwpSIUi9hiETs+DsVCfKwA5SK2WsHqIOnpmFrntzaiQyQuiUtM08O0k1qwdWlk7fsGAWrn19IOwCoHfB/SGdyubvy+XlRXL+NdvegVZ9P32WvpOu20EyzfJ585J1jhwYME295E79tLuOcdwh3bMP/vXSiORS2kXAd0daPynahsDnI5lJ+qE4KaOExjfLp7sPXFPO6V+H7UQ4tbjMpzkxZhfUsMFNZxsHEBt8qJip4bh5WKWqPKSVqoiQh53sS768a9wjgctziV54Hv46RSOH5dr6a+YEyHtYQmEqawUsFUq4SVCmG5jKlU0NVqJPJxj86GQdyr06i4B6e0RlmDMjqqgIzFsSYS71jM4ruNPselKGoxhlij60Y1jl85T+oXWhvZiOOmdCywOhqiiD4HybDFxHlh0guqVZzEFS6uG1UytV54JgOpNCqdRqWm9DJr+aacCT+Kh4NrjYwJH1N1gjKxoKu1duK4sXVCEoXsRJBadWvrzpicNjYaCsPWqvVJ51mnVukorIorNIgEKNZaG1fWBlCOE/+nMW5yOA469lPtRD6oHQfremjXBdfBGoOLAq2jToTRuHHDxkFFn7FYbXCxKKMjIbM1HzLx70zkQ/E6h06tYUStcTRxdypOk5qQTU2Byd4f/VBbiw41QRgQVEPCoEoYVAmqFXQYoqtVTBhGoyNBgKlWY9/XODq6B0+BZ8BVFo/Itz1rcWrlQIcoHZUPq0NU3FtyrJ7wgzhK1lqsAo1COw6h4xI6DsZxMX4Km0pj02mcbBaVzeHlO/A6Okh1dODn8vipNK7jxPkalTbjqDjvEqVJEkShYsGKfEopsMYmjY6pNYbDhGBFvS7QbgqyeVR3N6nFp5JdvpzUwoVxndN6Wi9Y1mJGRqi8tpnwjc0Eu3Zi9uzGDr8Hvo+7/AycM1fiL1mG6upG5TtQnd2oXC7a7DGdjlrajptULickWJNup+5DbRjN8yOhciNRUcnQx9zIuDmJicTG6jDq4dXSW9WezdVq0Np79HXSWrRx1V0bdgujyiERwdrwSTIsFwtUGA2pJN/HLXocJ+oZOO5EazmdQqUyces4hfI9lOdH774f+Y/QlmhrCbUmCALCMHrXYRg/CgjRdUP3JhYtG+qkJ67DkLBSjhp5QVAncNGwnNUhTq1BFPcWHWuTl4p7467jRov9ei6e5+Om03jpDG4mjeP74HgYz8OmUthUCicdPdLw8jncXI5UPo+fyZBKpfFcp+0ev80mLREsawy2WCTc9y7VV/6N8I3N6L/uxbw3hMqkcVefh3/uGvzTV6AWLMZZsACvry/qgQiCIJxkLKDjXaDDMMRoTRivel9b/b6uQwzUDTvGQ431u3bXJmrVdh5wXTd6tWgo7eNCUwUreqg3RvDObipP/47wL1vQg4egUsFZspzUldeSWrsOd9EpOP0LcJow60QQBEFoDz5Ii05qV8aGGj14mGDndsq//iV666uYchmnuwd/zfmkb/giqTWfxunujobjBEEQBOEEOSmqYcbGCHdup7LpJarPP4N+Zzuquxdv5VmkL7qCzHX/Dv/UJbxv+oogCIIgnCAzHxLUmuCv7xK8uongtVeovPQCFEZxP7kSf916vE+vJ3PZ5TjdJ2cHSkEQBOFvg5kPCdb+eBijBwaovL6FcPsbhG/vwOzeCTrEP28dqYsuxTv7PPxVZ+N0dZ7UG5iO2oPTuY7v+7hzZLooEM2qqstT4fh4njendg1oF7+fS0gezn0yJ7CI7nFz0GpNdeubVJ97FlsYgeI4emgQM3gYMzaCyuXxr7qW9CWX4a88G3fpsmjKcJN4+OGH+c1vfpPcqNZ6Tq0T6LoulUqF73znO1x11VWtjk7CvffeywsvvDAn0sp13Whm1hxYYWUqrutSKpW45ZZb+NKXvtTq6CQ8/vjjPP7443MyzSCaPWfM3NnZLgxDbr75Zm655ZZWRyXhiSee4LHHHpszeVib7diKhqy1llQqxaOPPko6nT7uucdvcljQBw9SeeFp7PCx6B9ofhr3jJVk1/8H/E9/Bm/pcpz586M/9DaZvXv3smnTJgqFAtZa+vv750QlDFEv5ujRowBcffXVnHXWWfT29pJKpRqyU6lUOHToUNJF9jyP/v7+hu1Uq1UGBgZIp9O8+OKL/Pa3v6Wvr490Ot2SQuM4DmNjY4yNjdHd3U0ul5szhReixs97772H1pozzzyTK6+8kr6+vhNqBdYThiGHDh1KKnClFPPnz294PbYwDBkYGCCTybBp0yaefPLJOZluYRgyNjZGb29vq6OCUoogCBgaGmL58uVcccUVOI5Df3//h1aM9RhjOHDgQJLOSinmzZtHrsFNC40x7N+/n1Qqxcsvvzyn8nBkZIRSqURPTw/ZbLap8bHWkslkTqiRc/xnWBb0wf2UX9sMFtzFi/GXLkPl8zj5jniJktYxNjbGwYMH+fKXv0ypVOKJJ56gu7u75a0713V58803uf766wmCgI6ODs444wwefPBB1q1b15CtN954g89//vNAVBksXbqUhx56iE996lMN2dmyZQvXXXcdnudx5MgRFi1axEMPPcTatWupVqsN2ToZ5PN57r33Xn7wgx/wwAMP8IUvfGHODJG4rsu+ffu48cYbGRgYIJ/P09/fz3333cd1113XkK0DBw6wYcMGBgcHUUrR0dHBj3/8Yz73uc81ZOfgwYNcddVVjI6OMjo6iuu6/OQnP+G6666jUqk0ZGu2cF2X3bt3c9ddd/HLX/6y5T1n3/fZsWMHl19+OR0dHeRyOfr6+nj00UdZu3btCds5duwY559/ftIw7uzs5Ec/+lFSLk+Uo0ePsnbtWoIgYGRkBMdxuO+++7jhhhsol8uN3t5Jw/M87rnnHu6//35+8YtfcPXVVzc9PkopFi5c+P5l9abG9fhWwD11CflTl8xKJD8qnZ2dLFq0KBmfXrhwId3d3a2OFgB9fX1JuFAoMDAwQKlUathOpVJhYGAg+ex5HsVisWE71WqVwcHBScd6e3uZN29ew7ZOFrW86u3tpb+/v2XxmI5isZjsqzY+Pk4YhhQKhYbtBEHAoUOHGBoaAmB0dPQj2RkdHQVIdh6o97O5wPDwMOl0mgULFrQ6KgCJfxcKBQqFAsViseFyaIzh0KFDjI+PA1Eejo2NNRwXYwwDAwMEQQBALpejs7NzTvRG8/k8EKXXXIjPBzF3nkLOEBuvWN3qXtVUFi1axPe//32MMRhj6O7uZvny5Q3bOfXUU7n77rt59tln2bhxIzfddBOnnXbajOzccccdyfOF3t5eTjnllIbtnExqeTYXJ4B0d3dz2223MTIyglIK3/c5++yzG7bT09PD7bffzsaNG3nyySfZsGED55577ozsfPe736VcLmOtJZvNsmLFiobtzDa11SLmCv39/ZP8PpfLsWzZsoZsZLNZ7rzzTjZu3MjIyAjXXHPNjPIwl8txxx13oLXGWks6nWbVqlUN25kNar3hVg9Nfii2jikf24Lh4WF7xRVX2PXr19vh4eFWR2fWuPvuu20ul7N/+MMfWh2Vk8ZPf/pT67qu/fWvf93qqMw6v/rVr6zjOPbnP/95q6Myq+zcudPedNNNrY7GrPDwww/be+65p9XRmBXuvPNO29PTY1988cVWR8Va+8FaNCe2F/koBEHAyy+/jNaaSy65BL+JsxSbyc6dO9m1axcXXXTRnBs+myl79+7lzTffZP369S3v7c02+/fvZ/Pmzaxdu3ZGPe12oVAo8NZbb3HhhRe2OionnXfffZdyuczKlStbHZWTzvbt29mzZw8XXngh8+fPb3V05sBq7YIgCIJwAnyQFskeC4IgCEJbIIIlCIIgtAUiWIIgCEJbIIIlCIIgtAUiWIIgCEJbIIIlCIIgtAUiWIIgCEJbIIIlCIIgtAUiWIIgCEJbIIIlCIIgtAUiWIIgCEJbIIIlCIIgtAUiWIIgCEJbIIIlCIIgtAUiWIIgCEJbIIIlCIIgtAUiWIIgCEJbIIIlCIIgtAUiWIIgCEJbIIIlCIIgtAUiWIIgCEJbIIIlCIIgtAUiWIIgCEJbIIIlCIIgtAUiWIIgCEJbIIIlCIIgtAUiWIIgCEJb4NV/WLRoEUqpVsVFEARBEFi0aNG0x5W11jY5LoIgCILQMDIkKAiCILQFIliCIAhCWyCCJQiCILQF/x9npFXZjoYqhwAAAABJRU5ErkJggg==;" vertex="1" parent="1">
                    <mxGeometry x="210" y="280" width="428" height="237" as="geometry"/>
                </mxCell>
                <mxCell id="3" value="" style="shape=cross;whiteSpace=wrap;html=1;fillColor=#0066CC;rotation=-45;" vertex="1" parent="1">
                    <mxGeometry x="300" y="440" width="30" height="30" as="geometry"/>
                </mxCell>
                <mxCell id="4" value="" style="shape=cross;whiteSpace=wrap;html=1;fillColor=#0066CC;rotation=-45;" vertex="1" parent="1">
                    <mxGeometry x="580" y="440" width="30" height="30" as="geometry"/>
                </mxCell>
                <mxCell id="5" value="" style="shape=cross;whiteSpace=wrap;html=1;fillColor=#0066CC;rotation=-45;" vertex="1" parent="1">
                    <mxGeometry x="384" y="460" width="30" height="30" as="geometry"/>
                </mxCell>
            </root>
        </mxGraphModel>
    </diagram>
</mxfile>